<?xml version="1.0" encoding="utf-8"?>
<!-- Generator: Adobe Illustrator 23.0.1, SVG Export Plug-In . SVG Version: 6.00 Build 0)  -->
<svg version="1.1" id="Camada_1" xmlns="http://www.w3.org/2000/svg" xmlns:xlink="http://www.w3.org/1999/xlink" x="0px" y="0px"
	 viewBox="0 0 1926.6 981.1" style="enable-background:new 0 0 1926.6 981.1;" xml:space="preserve">
<style type="text/css">
	.st0{fill:#4E6EF1;}
	.st1{clip-path:url(#SVGID_2_);}
	.st2{fill:url(#SVGID_3_);}
	.st3{fill:url(#SVGID_4_);}
	.st4{fill:url(#SVGID_5_);}
</style>
<g transform="translate(6.637)">
	<path class="st0" d="M1920,0v466.5c0,0-1646.8,496-1741.6,513s-185-114.8-185-114.8V0H1920z"/>
	<g>
		<defs>
			<path id="SVGID_1_" d="M1920,0v466.5c0,0-1646.8,496-1741.6,513S-3,864.8-3,864.8L-6.6,0H1920z"/>
		</defs>
		<clipPath id="SVGID_2_">
			<use xlink:href="#SVGID_1_"  style="overflow:visible;"/>
		</clipPath>
		<g class="st1">
			
				<linearGradient id="SVGID_3_" gradientUnits="userSpaceOnUse" x1="388.1658" y1="1344.1749" x2="388.2068" y2="1341.0239" gradientTransform="matrix(204.5874 -243.8178 -235.2268 -197.3787 236468.9375 359879.8125)">
				<stop  offset="0" style="stop-color:#254CEF"/>
				<stop  offset="1" style="stop-color:#4E6EF1"/>
			</linearGradient>
			<path class="st2" d="M200,367.1c1.3-18.2,14.1-33.4,31.8-37.8l140.6-35c17.6-4.4,36.1,3.1,45.8,18.5l76.9,122.9
				c9.6,15.4,8.3,35.3-3.4,49.3l-93,110.9c-11.7,13.9-31,18.8-47.9,11.9l-134.4-54.3c-16.9-6.8-27.4-23.7-26.2-41.8L200,367.1z"/>
			
				<linearGradient id="SVGID_4_" gradientUnits="userSpaceOnUse" x1="389.6567" y1="1339.2861" x2="389.6567" y2="1340.1881" gradientTransform="matrix(1920 0 0 -294.194 -747180.9375 394386.8438)">
				<stop  offset="0" style="stop-color:#254CEF"/>
				<stop  offset="1" style="stop-color:#4E6EF1"/>
			</linearGradient>
			<path class="st3" d="M0,288l26.7-26.7C53.3,235,106.7,181,160,154.7C213.3,128,266.7,128,320,112s106.7-48,160-32
				s106.7,80,160,112s106.7,32,160,48s106.7,48,160,53.3c53.3,5.7,106.7-16.3,160-53.3s106.7-91,160-85.3
				c53.3,5.3,106.7,69.3,160,53.3s106.7-112,160-106.7c53.3,5.7,106.7,111.7,160,133.4c53.3,21.3,106.7-42.7,133.3-74.7l26.7-32V0H0
				V288z"/>
			
				<linearGradient id="SVGID_5_" gradientUnits="userSpaceOnUse" x1="389.4476" y1="1339.7135" x2="389.4976" y2="1340.8984" gradientTransform="matrix(1205.2432 -368.4798 -89.1955 -291.7452 -349279.1563 535362.4375)">
				<stop  offset="0" style="stop-color:#254CEF"/>
				<stop  offset="1" style="stop-color:#4E6EF1"/>
			</linearGradient>
			<path class="st4" d="M1181,662.4c-72.2-22.2-272.6-68.8-332-50.3c-60,18-95.1,118.7-150.1,151.9c-55.1,33.9-131.2,0.7-196.9-1.2
				c-66-1.8-123.4,26.2-184.4,39.6c-61.3,13.5-125.3-85-187.9-76.6c-63,8.1-126,122.4-155.2,131.3l-30.3,9.3l65.5,214.2L1088,751.1
				C1147.8,732.7,1253,685.1,1181,662.4z"/>
		</g>
	</g>
</g>
</svg>
